<?xml version="1.0" encoding="UTF-8"?>
<svg width="35" height="33" viewBox="0 0 35 33" fill="none" xmlns="http://www.w3.org/2000/svg">
<path d="M32.9582 1L19.8241 10.7183L22.2665 4.99099L32.9582 1Z" fill="#E17726" stroke="#E17726" stroke-width="0.25" stroke-linecap="round" stroke-linejoin="round"/>
<path d="M2.66699 1L15.6466 10.809L13.3587 4.99098L2.66699 1Z" fill="#E27625" stroke="#E27625" stroke-width="0.25" stroke-linecap="round" stroke-linejoin="round"/>
<path d="M28.2207 23.5335L24.6888 28.8721L32.1397 30.8963L34.2704 23.6501L28.2207 23.5335Z" fill="#E27625" stroke="#E27625" stroke-width="0.25" stroke-linecap="round" stroke-linejoin="round"/>
<path d="M1.35938 23.6501L3.47829 30.8963L10.9293 28.8721L7.39734 23.5335L1.35938 23.6501Z" fill="#E27625" stroke="#E27625" stroke-width="0.25" stroke-linecap="round" stroke-linejoin="round"/>
<path d="M10.5134 14.5149L8.44727 17.6507L15.8072 17.9922L15.5741 10.0186L10.5134 14.5149Z" fill="#E27625" stroke="#E27625" stroke-width="0.25" stroke-linecap="round" stroke-linejoin="round"/>
<path d="M25.1097 14.5151L19.9581 9.92798L19.8242 17.9924L27.1842 17.6509L25.1097 14.5151Z" fill="#E27625" stroke="#E27625" stroke-width="0.25" stroke-linecap="round" stroke-linejoin="round"/>
<path d="M10.9292 28.872L15.3411 26.7312L11.5339 23.7085L10.9292 28.872Z" fill="#E27625" stroke="#E27625" stroke-width="0.25" stroke-linecap="round" stroke-linejoin="round"/>
<path d="M20.2822 26.7312L24.6941 28.872L24.0894 23.7085L20.2822 26.7312Z" fill="#E27625" stroke="#E27625" stroke-width="0.25" stroke-linecap="round" stroke-linejoin="round"/>
<path d="M24.6941 28.8722L20.2822 26.7314L20.6492 29.6375L20.6075 30.8047L24.6941 28.8722Z" fill="#D5BFB2" stroke="#D5BFB2" stroke-width="0.25" stroke-linecap="round" stroke-linejoin="round"/>
<path d="M10.9292 28.8722L15.0158 30.8047L14.9824 29.6375L15.3411 26.7314L10.9292 28.8722Z" fill="#D5BFB2" stroke="#D5BFB2" stroke-width="0.25" stroke-linecap="round" stroke-linejoin="round"/>
<path d="M15.0994 21.7842L11.4004 20.6919L14.0466 19.4915L15.0994 21.7842Z" fill="#233447" stroke="#233447" stroke-width="0.25" stroke-linecap="round" stroke-linejoin="round"/>
<path d="M20.5239 21.7842L21.5767 19.4915L24.2313 20.6919L20.5239 21.7842Z" fill="#233447" stroke="#233447" stroke-width="0.25" stroke-linecap="round" stroke-linejoin="round"/>
<path d="M10.9293 28.8721L11.5674 23.5335L7.39734 23.6501L10.9293 28.8721Z" fill="#CC6228" stroke="#CC6228" stroke-width="0.25" stroke-linecap="round" stroke-linejoin="round"/>
<path d="M24.0557 23.5335L24.6938 28.8721L28.2258 23.6501L24.0557 23.5335Z" fill="#CC6228" stroke="#CC6228" stroke-width="0.25" stroke-linecap="round" stroke-linejoin="round"/>
<path d="M27.1842 17.6509L19.8242 17.9924L20.5239 21.7843L21.5767 19.4916L24.2313 20.692L27.1842 17.6509Z" fill="#CC6228" stroke="#CC6228" stroke-width="0.25" stroke-linecap="round" stroke-linejoin="round"/>
<path d="M11.4004 20.692L14.0466 19.4916L15.0994 21.7843L15.8074 17.9924L8.44727 17.6509L11.4004 20.692Z" fill="#CC6228" stroke="#CC6228" stroke-width="0.25" stroke-linecap="round" stroke-linejoin="round"/>
<path d="M8.44727 17.6509L11.5339 23.7086L11.4004 20.692L8.44727 17.6509Z" fill="#E27525" stroke="#E27525" stroke-width="0.25" stroke-linecap="round" stroke-linejoin="round"/>
<path d="M24.2313 20.692L24.0894 23.7086L27.1844 17.6509L24.2313 20.692Z" fill="#E27525" stroke="#E27525" stroke-width="0.25" stroke-linecap="round" stroke-linejoin="round"/>
<path d="M15.8073 17.9922L15.0994 21.7842L15.9913 26.2765L16.1419 20.3505L15.8073 17.9922Z" fill="#E27525" stroke="#E27525" stroke-width="0.25" stroke-linecap="round" stroke-linejoin="round"/>
<path d="M19.8242 17.9922L19.498 20.3422L19.6319 26.2765L20.5239 21.7842L19.8242 17.9922Z" fill="#E27525" stroke="#E27525" stroke-width="0.25" stroke-linecap="round" stroke-linejoin="round"/>
<path d="M20.5239 21.7843L19.6318 26.2766L20.2822 26.7314L24.0894 23.7087L24.2313 20.6921L20.5239 21.7843Z" fill="#F5841F" stroke="#F5841F" stroke-width="0.25" stroke-linecap="round" stroke-linejoin="round"/>
<path d="M11.4004 20.6921L11.5339 23.7087L15.3411 26.7314L15.9915 26.2766L15.0994 21.7843L11.4004 20.6921Z" fill="#F5841F" stroke="#F5841F" stroke-width="0.25" stroke-linecap="round" stroke-linejoin="round"/>
<path d="M20.6075 30.8046L20.6492 29.6374L20.3063 29.3457H15.317L14.9824 29.6374L15.0158 30.8046L10.9292 28.8721L12.4153 30.0891L15.2753 32H20.3397L23.208 30.0891L24.6941 28.8721L20.6075 30.8046Z" fill="#C0AC9D" stroke="#C0AC9D" stroke-width="0.25" stroke-linecap="round" stroke-linejoin="round"/>
<path d="M20.2822 26.7314L19.6318 26.2766H15.9913L15.3411 26.7314L14.9824 29.6375L15.317 29.3458H20.3063L20.6492 29.6375L20.2822 26.7314Z" fill="#161616" stroke="#161616" stroke-width="0.25" stroke-linecap="round" stroke-linejoin="round"/>
<path d="M33.6297 11.3532L34.7242 5.98873L32.9582 1L20.2822 10.3766L25.1097 14.5151L31.9472 16.5227L33.4584 14.7485L32.7921 14.2687L33.8365 13.3009L33.0199 12.6879L34.0644 11.8666L33.6297 11.3532Z" fill="#763E1A" stroke="#763E1A" stroke-width="0.25" stroke-linecap="round" stroke-linejoin="round"/>
<path d="M1 5.98873L2.10281 11.3532L1.65148 11.8666L2.70429 12.6879L1.88766 13.3009L2.93213 14.2687L2.26577 14.7485L3.77704 16.5227L10.6145 14.5151L15.442 10.3766L2.76602 1L1 5.98873Z" fill="#763E1A" stroke="#763E1A" stroke-width="0.25" stroke-linecap="round" stroke-linejoin="round"/>
<path d="M31.9471 16.5227L25.1096 14.5151L27.1841 17.6509L24.0891 23.7086L28.2258 23.6503H34.2704L31.9471 16.5227Z" fill="#F5841F" stroke="#F5841F" stroke-width="0.25" stroke-linecap="round" stroke-linejoin="round"/>
<path d="M10.6145 14.5151L3.77697 16.5227L1.46191 23.6503H7.49987L11.6366 23.7086L8.54993 17.6509L10.6145 14.5151Z" fill="#F5841F" stroke="#F5841F" stroke-width="0.25" stroke-linecap="round" stroke-linejoin="round"/>
<path d="M19.8242 17.9924L20.2822 10.3766L22.2666 4.99097H13.3586L15.3413 10.3766L15.8074 17.9924L15.983 20.3589L15.9913 26.2766H19.6318L19.6485 20.3589L19.8242 17.9924Z" fill="#F5841F" stroke="#F5841F" stroke-width="0.25" stroke-linecap="round" stroke-linejoin="round"/>
</svg> 